<svg width="48" height="48" viewBox="0 0 48 48" fill="none" xmlns="http://www.w3.org/2000/svg">
<circle cx="24" cy="24" r="24" fill="#273C4A"/>
<g clip-path="url(#clip0_0_1)">
<path d="M36 24C36 17.3726 30.6274 12 24 12C17.3726 12 12 17.3726 12 24C12 29.9895 16.3882 34.954 22.125 35.8542V27.4688H19.0781V24H22.125V21.3563C22.125 18.3488 23.9166 16.6875 26.6576 16.6875C27.9701 16.6875 29.3438 16.9219 29.3438 16.9219V19.875H27.8306C26.34 19.875 25.875 20.8001 25.875 21.75V24H29.2031L28.6711 27.4688H25.875V35.8542C31.6118 34.954 36 29.9895 36 24Z" fill="#4CCCCC"/>
</g>
<defs>
<clipPath id="clip0_0_1">
<rect width="24" height="24" fill="white" transform="translate(12 12)"/>
</clipPath>
</defs>
</svg>