<svg width="60" height="52" viewBox="0 0 60 52" fill="none" xmlns="http://www.w3.org/2000/svg">
<rect width="60" height="52" rx="5" fill="white" fill-opacity="0.65"/>
<g clip-path="url(#clip0_7_146)">
<path d="M34 34V18H22V33C22 33.2652 22.1054 33.5196 22.2929 33.7071C22.4804 33.8946 22.7348 34 23 34H34ZM37 36H23C22.2044 36 21.4413 35.6839 20.8787 35.1213C20.3161 34.5587 20 33.7956 20 33V17C20 16.7348 20.1054 16.4804 20.2929 16.2929C20.4804 16.1054 20.7348 16 21 16H35C35.2652 16 35.5196 16.1054 35.7071 16.2929C35.8946 16.4804 36 16.7348 36 17V24H40V33C40 33.7956 39.6839 34.5587 39.1213 35.1213C38.5587 35.6839 37.7956 36 37 36ZM36 26V33C36 33.2652 36.1054 33.5196 36.2929 33.7071C36.4804 33.8946 36.7348 34 37 34C37.2652 34 37.5196 33.8946 37.7071 33.7071C37.8946 33.5196 38 33.2652 38 33V26H36ZM24 20H30V26H24V20ZM26 22V24H28V22H26ZM24 27H32V29H24V27ZM24 30H32V32H24V30Z" fill="#6F7A81"/>
</g>
<defs>
<clipPath id="clip0_7_146">
<rect width="24" height="24" fill="white" transform="translate(18 14)"/>
</clipPath>
</defs>
</svg>