<svg width="60" height="52" viewBox="0 0 60 52" fill="none" xmlns="http://www.w3.org/2000/svg">
<rect width="60" height="52" rx="5" fill="white" fill-opacity="0.65"/>
<g clip-path="url(#clip0_7_151)">
<path d="M24.235 20.453C22.96 21.7763 22.1795 23.4982 22.0246 25.3292C21.8696 27.1602 22.3498 28.9887 23.3843 30.5074C24.4187 32.0261 25.9445 33.1424 27.7051 33.6686C29.4657 34.1948 31.3538 34.0989 33.052 33.397C33.167 32.647 32.915 31.927 32.812 31.675C32.582 31.115 31.824 30.158 30.559 28.831C30.221 28.476 30.243 28.203 30.364 27.394L30.377 27.303C30.459 26.749 30.597 26.421 32.462 26.125C33.41 25.975 33.659 26.353 34.004 26.878L34.12 27.05C34.448 27.53 34.691 27.64 35.058 27.806C35.223 27.881 35.428 27.976 35.703 28.131C36.355 28.504 36.355 28.925 36.355 29.847V29.952C36.355 30.343 36.317 30.687 36.257 30.986C37.0244 30.0229 37.5591 28.8957 37.8196 27.6922C38.0801 26.4886 38.0593 25.2412 37.7588 24.047C37.4584 22.8528 36.8863 21.7441 36.0873 20.8071C35.2883 19.8702 34.2838 19.1303 33.152 18.645C32.599 19.018 31.84 19.547 31.575 19.91C31.44 20.095 31.248 21.042 30.625 21.12C30.463 21.14 30.244 21.126 30.012 21.111C29.39 21.071 28.54 21.016 28.268 21.755C28.095 22.223 28.065 23.495 28.624 24.155C28.714 24.26 28.731 24.455 28.67 24.674C28.59 24.961 28.429 25.136 28.378 25.172C28.282 25.116 28.09 24.893 27.959 24.742C27.646 24.377 27.254 23.922 26.748 23.782C26.564 23.731 26.362 23.689 26.165 23.647C25.616 23.532 24.995 23.401 24.85 23.093C24.744 22.867 24.745 22.556 24.745 22.228C24.745 21.811 24.745 21.34 24.541 20.883C24.4701 20.7199 24.3659 20.5734 24.235 20.453ZM30 36C24.477 36 20 31.523 20 26C20 20.477 24.477 16 30 16C35.523 16 40 20.477 40 26C40 31.523 35.523 36 30 36Z" fill="#6F7A81"/>
</g>
<defs>
<clipPath id="clip0_7_151">
<rect width="24" height="24" fill="white" transform="translate(18 14)"/>
</clipPath>
</defs>
</svg>