<svg width="60" height="52" viewBox="0 0 60 52" fill="none" xmlns="http://www.w3.org/2000/svg">
<rect width="60" height="52" rx="5" fill="white" fill-opacity="0.65"/>
<g clip-path="url(#clip0_7_156)">
<path d="M22.929 16.9292L24.343 18.3432C23.599 19.0853 23.0091 19.9671 22.607 20.9379C22.2049 21.9087 21.9986 22.9494 22 24.0002C22 26.2102 22.895 28.2102 24.343 29.6572L22.93 31.0702C22 30.1428 21.2624 29.0409 20.7595 27.8276C20.2567 26.6143 19.9986 25.3136 20 24.0002C19.9983 22.6867 20.2562 21.3859 20.7589 20.1724C21.2615 18.9589 21.999 17.8568 22.929 16.9292ZM37.071 16.9292C38.001 17.8568 38.7385 18.9589 39.2411 20.1724C39.7438 21.3859 40.0017 22.6867 40 24.0002C40.0017 25.3137 39.7438 26.6145 39.2411 27.828C38.7385 29.0415 38.001 30.1436 37.071 31.0712L35.657 29.6572C36.401 28.9151 36.991 28.0333 37.393 27.0625C37.7951 26.0917 38.0014 25.051 38 24.0002C38 21.7902 37.105 19.7902 35.657 18.3432L37.07 16.9302L37.071 16.9292ZM25.757 19.7572L27.172 21.1722C26.8 21.5431 26.5049 21.9839 26.3038 22.4692C26.1026 22.9546 25.9994 23.4748 26 24.0002C26 25.1052 26.448 26.1052 27.172 26.8282L25.757 28.2432C25.199 27.6866 24.7566 27.0252 24.455 26.2971C24.1535 25.5689 23.9989 24.7883 24 24.0002C24 22.3432 24.672 20.8432 25.757 19.7572ZM34.243 19.7572C34.801 20.3138 35.2434 20.9752 35.545 21.7033C35.8465 22.4315 36.0011 23.2121 36 24.0002C36.0011 24.7883 35.8465 25.5689 35.545 26.2971C35.2434 27.0252 34.801 27.6866 34.243 28.2432L32.828 26.8282C33.2 26.4573 33.4951 26.0165 33.6962 25.5312C33.8974 25.0458 34.0006 24.5255 34 24.0002C34.0006 23.4748 33.8974 22.9546 33.6962 22.4692C33.4951 21.9839 33.2 21.5431 32.828 21.1722L34.243 19.7572ZM30 26.0002C29.4696 26.0002 28.9609 25.7895 28.5858 25.4144C28.2107 25.0393 28 24.5306 28 24.0002C28 23.4698 28.2107 22.9611 28.5858 22.586C28.9609 22.2109 29.4696 22.0002 30 22.0002C30.5304 22.0002 31.0391 22.2109 31.4142 22.586C31.7893 22.9611 32 23.4698 32 24.0002C32 24.5306 31.7893 25.0393 31.4142 25.4144C31.0391 25.7895 30.5304 26.0002 30 26.0002ZM29 28.0002H31V36.0002H29V28.0002Z" fill="#6F7A81"/>
</g>
<defs>
<clipPath id="clip0_7_156">
<rect width="24" height="24" fill="white" transform="translate(18 14)"/>
</clipPath>
</defs>
</svg>