<svg width="86" height="14" viewBox="0 0 86 14" fill="none" xmlns="http://www.w3.org/2000/svg">
<path d="M7 0L9.06548 4.15711L13.6574 4.83688L10.342 8.08589L11.1145 12.6631L7 10.514L2.8855 12.6631L3.65799 8.08589L0.342604 4.83688L4.93452 4.15711L7 0Z" fill="#F8AD2C"/>
<path d="M25 0L27.0655 4.15711L31.6574 4.83688L28.342 8.08589L29.1145 12.6631L25 10.514L20.8855 12.6631L21.658 8.08589L18.3426 4.83688L22.9345 4.15711L25 0Z" fill="#F8AD2C"/>
<path d="M43 0L45.0655 4.15711L49.6574 4.83688L46.342 8.08589L47.1145 12.6631L43 10.514L38.8855 12.6631L39.658 8.08589L36.3426 4.83688L40.9345 4.15711L43 0Z" fill="#F8AD2C"/>
<path d="M61 0L63.0655 4.15711L67.6574 4.83688L64.342 8.08589L65.1145 12.6631L61 10.514L56.8855 12.6631L57.658 8.08589L54.3426 4.83688L58.9345 4.15711L61 0Z" fill="#F8AD2C"/>
<path d="M79 0L81.0655 4.15711L85.6574 4.83688L82.342 8.08589L83.1145 12.6631L79 10.514L74.8855 12.6631L75.658 8.08589L72.3426 4.83688L76.9345 4.15711L79 0Z" fill="#F8AD2C"/>
</svg>