<svg width="40" height="40" viewBox="0 0 40 40" fill="none" xmlns="http://www.w3.org/2000/svg">
<circle cx="20" cy="20" r="20" fill="#F8F8F8"/>
<path d="M22 12H12V28H22V12Z" fill="#ABC8C8"/>
<path d="M29 27H31V29H9V27H11V12C11 11.7348 11.1054 11.4804 11.2929 11.2929C11.4804 11.1054 11.7348 11 12 11H22C22.2652 11 22.5196 11.1054 22.7071 11.2929C22.8946 11.4804 23 11.7348 23 12V27H27V19H25V17H28C28.2652 17 28.5196 17.1054 28.7071 17.2929C28.8946 17.4804 29 17.7348 29 18V27ZM13 13V27H21V13H13ZM15 19H19V21H15V19ZM15 15H19V17H15V15Z" fill="#0D0D0D"/>
</svg>