<svg width="40" height="40" viewBox="0 0 40 40" fill="none" xmlns="http://www.w3.org/2000/svg">
<circle cx="20" cy="20" r="20" fill="white"/>
<path d="M22 10.9999C18.8 10.5999 16.6667 13.4999 16 14.9999C17.3333 14.9999 20.2 15.4999 21 15.4999C21.8 15.4999 24 18.6665 25 20.4999L25.5 23.9999C27.5 23.9999 29 19.4999 29 16.9999C29 14.4999 26 11.4999 22 10.9999Z" fill="#ABC8C8"/>
<path d="M22 10C23.8299 9.99913 25.6049 10.6257 27.0288 11.7751C28.4527 12.9246 29.4395 14.5275 29.8246 16.3165C30.2097 18.1055 29.9699 19.9724 29.145 21.6059C28.3202 23.2395 26.9602 24.5408 25.292 25.293C24.7587 26.4719 23.9475 27.5039 22.9278 28.3004C21.9082 29.097 20.7105 29.6343 19.4376 29.8663C18.1647 30.0984 16.8545 30.0182 15.6193 29.6327C14.3842 29.2472 13.261 28.5678 12.3461 27.6529C11.4312 26.738 10.7518 25.6148 10.3663 24.3796C9.98076 23.1445 9.90058 21.8343 10.1326 20.5614C10.3647 19.2884 10.902 18.0908 11.6985 17.0711C12.4951 16.0515 13.5271 15.2402 14.706 14.707C15.3401 13.3039 16.3656 12.1135 17.6593 11.2786C18.9531 10.4437 20.4602 9.99976 22 10ZM18 16C17.212 16 16.4318 16.1552 15.7039 16.4567C14.9759 16.7583 14.3145 17.2002 13.7573 17.7574C13.2002 18.3145 12.7582 18.9759 12.4567 19.7039C12.1552 20.4319 12 21.2121 12 22C12 22.7879 12.1552 23.5681 12.4567 24.2961C12.7582 25.0241 13.2002 25.6855 13.7573 26.2426C14.3145 26.7998 14.9759 27.2417 15.7039 27.5433C16.4318 27.8448 17.212 28 18 28C19.5913 28 21.1174 27.3679 22.2426 26.2426C23.3678 25.1174 24 23.5913 24 22C24 20.4087 23.3678 18.8826 22.2426 17.7574C21.1174 16.6321 19.5913 16 18 16ZM19 17V18H21V20H17C16.875 19.9998 16.7545 20.0463 16.6622 20.1305C16.5698 20.2147 16.5124 20.3304 16.5011 20.4548C16.4898 20.5793 16.5255 20.7034 16.6012 20.8028C16.6769 20.9023 16.787 20.9697 16.91 20.992L17 21H19C19.663 21 20.2989 21.2634 20.7677 21.7322C21.2366 22.2011 21.5 22.837 21.5 23.5C21.5 24.163 21.2366 24.7989 20.7677 25.2678C20.2989 25.7366 19.663 26 19 26V27H17V26H15V24H19C19.1249 24.0002 19.2454 23.9537 19.3377 23.8695C19.4301 23.7853 19.4875 23.6696 19.4988 23.5452C19.5101 23.4207 19.4744 23.2966 19.3987 23.1972C19.3231 23.0977 19.2129 23.0303 19.09 23.008L19 23H17C16.3369 23 15.701 22.7366 15.2322 22.2678C14.7634 21.7989 14.5 21.163 14.5 20.5C14.5 19.837 14.7634 19.2011 15.2322 18.7322C15.701 18.2634 16.3369 18 17 18V17H19ZM22 12C21.1526 11.999 20.3148 12.1779 19.5418 12.525C18.7688 12.872 18.0783 13.3792 17.516 14.013C18.6462 13.9444 19.7782 14.1165 20.837 14.5179C21.8958 14.9194 22.8573 15.541 23.6579 16.3418C24.4586 17.1425 25.0801 18.1041 25.4814 19.1629C25.8827 20.2218 26.0547 21.3537 25.986 22.484C26.8952 21.6756 27.5372 20.6099 27.8268 19.4283C28.1164 18.2467 28.04 17.0049 27.6076 15.8677C27.1752 14.7305 26.4074 13.7516 25.4059 13.0609C24.4044 12.3701 23.2166 12.0001 22 12Z" fill="#0D0D0D"/>
</svg>