<svg width="40" height="40" viewBox="0 0 40 40" fill="none" xmlns="http://www.w3.org/2000/svg">
<circle cx="20" cy="20" r="20" fill="#F8F8F8"/>
<path d="M15 14H11V28H15V14Z" fill="#ABC8C8"/>
<path d="M29 14H25V28H29V14Z" fill="#ABC8C8"/>
<path d="M15 13V10C15 9.73478 15.1054 9.48043 15.2929 9.29289C15.4804 9.10536 15.7348 9 16 9H24C24.2652 9 24.5196 9.10536 24.7071 9.29289C24.8946 9.48043 25 9.73478 25 10V13H29C29.2652 13 29.5196 13.1054 29.7071 13.2929C29.8946 13.4804 30 13.7348 30 14V28C30 28.2652 29.8946 28.5196 29.7071 28.7071C29.5196 28.8946 29.2652 29 29 29H11C10.7348 29 10.4804 28.8946 10.2929 28.7071C10.1054 28.5196 10 28.2652 10 28V14C10 13.7348 10.1054 13.4804 10.2929 13.2929C10.4804 13.1054 10.7348 13 11 13H15ZM24 23H21V24H19V23H16V27H24V23ZM16 15V21H19V20H21V21H24V15H16ZM14 21V15H12V21H14ZM26 21H28V15H26V21ZM14 23H12V27H14V23ZM26 23V27H28V23H26ZM17 11V13H23V11H17Z" fill="#0D0D0D"/>
</svg>