<svg width="40" height="40" viewBox="0 0 40 40" fill="none" xmlns="http://www.w3.org/2000/svg">
<circle cx="20" cy="20" r="20" fill="#F8F8F8"/>
<path d="M20 27.5V12L12 14V22L14 25L20 27.5Z" fill="#ABC8C8"/>
<path d="M20.485 11.121L28.243 13.061C28.688 13.171 29 13.571 29 14.031V15H30C31.1 15 32 15.9 32 17V20C32 21.657 30.657 23 29 23H28.579C28.044 24.35 27.027 25.486 25.683 26.158L20.894 28.553C20.331 28.834 19.669 28.834 19.106 28.553L14.316 26.158C12.974 25.486 11.957 24.35 11.422 23H11C9.343 23 8 21.657 8 20V17C8 15.895 8.895 15 10 15H11V14.03C11 13.572 11.312 13.172 11.757 13.06L19.515 11.121C19.833 11.041 20.167 11.041 20.485 11.121ZM20 13.061L13 14.811V20.791C13 22.307 13.856 23.691 15.211 24.37L20 26.764L24.789 24.37C26.144 23.692 27 22.307 27 20.792V14.812L20 13.062V13.061ZM11 17H10V20C10 20.552 10.448 21 11 21V17ZM30 17H29V21C29.552 21 30 20.552 30 20V17Z" fill="#0D0D0D"/>
</svg>