<svg width="40" height="40" viewBox="0 0 40 40" fill="none" xmlns="http://www.w3.org/2000/svg">
<circle cx="20" cy="20" r="20" fill="#F8F8F8"/>
<path d="M13 17L20 11V19.5H18V23H20V28H13V17Z" fill="#ABC8C8"/>
<path d="M27 28.9999H13C12.7348 28.9999 12.4804 28.8946 12.2929 28.707C12.1054 28.5195 12 28.2651 12 27.9999V18.9999H9L19.327 9.61192C19.5111 9.4444 19.7511 9.35156 20 9.35156C20.2489 9.35156 20.4889 9.4444 20.673 9.61192L31 18.9999H28V27.9999C28 28.2651 27.8946 28.5195 27.7071 28.707C27.5196 28.8946 27.2652 28.9999 27 28.9999ZM14 26.9999H26V17.1569L20 11.7029L14 17.1569V26.9999ZM17 17.9999H23V23.9999H17V17.9999ZM19 19.9999V21.9999H21V19.9999H19Z" fill="#0D0D0D"/>
</svg>