<svg width="40" height="40" viewBox="0 0 40 40" fill="none" xmlns="http://www.w3.org/2000/svg">
<circle cx="20" cy="20" r="20" fill="#F8F8F8"/>
<g clip-path="url(#clip0_0_1)">
<path d="M12 12L20 10V29.5L15 26.5L12 23V12Z" fill="#ABC8C8"/>
<path d="M11.783 10.826L20 9L28.217 10.826C28.4391 10.8754 28.6377 10.999 28.78 11.1764C28.9224 11.3538 29 11.5745 29 11.802V21.789C28.9999 22.7767 28.756 23.7492 28.2899 24.62C27.8238 25.4908 27.1499 26.2331 26.328 26.781L20 31L13.672 26.781C12.8503 26.2332 12.1765 25.4911 11.7103 24.6205C11.2442 23.7498 11.0002 22.7776 11 21.79V11.802C11 11.5745 11.0776 11.3538 11.22 11.1764C11.3623 10.999 11.5609 10.8754 11.783 10.826ZM13 12.604V21.789C13 22.4475 13.1626 23.0957 13.4733 23.6763C13.7839 24.2568 14.2332 24.7517 14.781 25.117L20 28.597L25.219 25.117C25.7667 24.7518 26.2158 24.2571 26.5265 23.6767C26.8372 23.0964 26.9998 22.4483 27 21.79V12.604L20 11.05L13 12.604Z" fill="#0D0D0D"/>
</g>
<defs>
<clipPath id="clip0_0_1">
<rect width="24" height="24" fill="white" transform="translate(8 8)"/>
</clipPath>
</defs>
</svg>