<svg width="40" height="40" viewBox="0 0 40 40" fill="none" xmlns="http://www.w3.org/2000/svg">
<circle cx="20" cy="20" r="20" fill="#F8F8F8"/>
<g clip-path="url(#clip0_0_1)">
<path d="M26.6667 17.3335H9.66675L18.3334 26.3335L26.6667 17.3335Z" fill="#ABC8C8"/>
<path d="M12.873 11H27.127C27.2848 11 27.4404 11.0373 27.581 11.1089C27.7216 11.1805 27.8433 11.2844 27.936 11.412L31.759 16.668C31.827 16.7615 31.8605 16.8757 31.8537 16.9911C31.847 17.1065 31.8004 17.216 31.722 17.301L20.367 29.602C20.2771 29.6992 20.1522 29.7568 20.0198 29.7621C19.8875 29.7673 19.7584 29.7198 19.661 29.63C19.654 29.624 15.861 25.515 8.27803 17.301C8.19964 17.216 8.15311 17.1065 8.14636 16.9911C8.13961 16.8757 8.17307 16.7615 8.24103 16.668L12.064 11.412C12.1568 11.2844 12.2785 11.1805 12.4191 11.1089C12.5597 11.0373 12.7152 11 12.873 11ZM13.383 13L10.583 16.85L20 27.05L29.417 16.85L26.617 13H13.383Z" fill="#1B2A34"/>
</g>
<defs>
<clipPath id="clip0_0_1">
<rect width="24" height="24" fill="white" transform="translate(8 8)"/>
</clipPath>
</defs>
</svg>