<svg width="40" height="40" viewBox="0 0 40 40" fill="none" xmlns="http://www.w3.org/2000/svg">
<circle cx="20" cy="20" r="20" fill="white"/>
<path d="M12 11H20V25H12V11Z" fill="#ABC8C8"/>
<path d="M29 26H14C13.7348 26 13.4804 26.1054 13.2929 26.2929C13.1054 26.4804 13 26.7348 13 27C13 27.2652 13.1054 27.5196 13.2929 27.7071C13.4804 27.8946 13.7348 28 14 28H29V30H14C13.2044 30 12.4413 29.6839 11.8787 29.1213C11.3161 28.5587 11 27.7956 11 27V12C11 11.4696 11.2107 10.9609 11.5858 10.5858C11.9609 10.2107 12.4696 10 13 10H29V26ZM13 24.05C13.162 24.017 13.329 24 13.5 24H27V12H13V24.05ZM24 17H16V15H24V17Z" fill="#0D0D0D"/>
</svg>