<svg width="40" height="40" viewBox="0 0 40 40" fill="none" xmlns="http://www.w3.org/2000/svg">
<circle cx="20" cy="20" r="20" fill="white"/>
<path d="M25.0001 21H15.0001C15.0001 21 14.5001 15 20.0001 15C25.5001 15 25.0001 21 25.0001 21Z" fill="#ABC8C8"/>
<path d="M14.083 21C13.9384 20.14 13.9831 19.2588 14.2139 18.4178C14.4446 17.5768 14.856 16.7962 15.4192 16.1304C15.9825 15.4646 16.6841 14.9295 17.4752 14.5625C18.2663 14.1956 19.1279 14.0055 20 14.0055C20.8721 14.0055 21.7337 14.1956 22.5248 14.5625C23.3159 14.9295 24.0175 15.4646 24.5808 16.1304C25.144 16.7962 25.5554 17.5768 25.7861 18.4178C26.0169 19.2588 26.0616 20.14 25.917 21H23.874C24.0259 20.4091 24.0407 19.7913 23.9171 19.1938C23.7935 18.5963 23.5349 18.035 23.161 17.5528C22.7872 17.0707 22.3079 16.6804 21.7601 16.412C21.2122 16.1435 20.6101 16.0039 20 16.0039C19.3899 16.0039 18.7878 16.1435 18.2399 16.412C17.6921 16.6804 17.2128 17.0707 16.839 17.5528C16.4651 18.035 16.2065 18.5963 16.0829 19.1938C15.9593 19.7913 15.9741 20.4091 16.126 21H14.083ZM10 23H20V25H10V23ZM22 23H30V25H22V23ZM24 27H28V29H24V27ZM12 27H22V29H12V27ZM19 9H21V12H19V9ZM11.515 12.929L12.929 11.515L15.05 13.636L13.636 15.05L11.515 12.93V12.929ZM27.07 11.515L28.484 12.929L26.363 15.05L24.949 13.636L27.07 11.515ZM31 19V21H28V19H31ZM12 19V21H9V19H12Z" fill="#0D0D0D"/>
</svg>