<svg width="36" height="36" viewBox="0 0 36 36" fill="none" xmlns="http://www.w3.org/2000/svg">
<mask id="path-1-inside-1_0_1" fill="white">
<path d="M0 0H36V36H0V0Z"/>
</mask>
<path d="M0 0H36V36H0V0Z" fill="white"/>
<path d="M35 0V36H37V0H35Z" fill="#EBEBEB" mask="url(#path-1-inside-1_0_1)"/>
<g clip-path="url(#clip0_0_1)">
<path d="M26.6404 18.0004C26.6404 13.2286 22.7721 9.36035 18.0004 9.36035C13.2286 9.36035 9.36035 13.2286 9.36035 18.0004C9.36035 22.3128 12.5199 25.8872 16.6504 26.5354V20.4979H14.4566V18.0004H16.6504V16.0969C16.6504 13.9315 17.9403 12.7354 19.9138 12.7354C20.8588 12.7354 21.8479 12.9041 21.8479 12.9041V15.0304H20.7584C19.6852 15.0304 19.3504 15.6964 19.3504 16.3804V18.0004H21.7466L21.3635 20.4979H19.3504V26.5354C23.4808 25.8872 26.6404 22.3128 26.6404 18.0004Z" fill="#1B2A34"/>
</g>
<defs>
<clipPath id="clip0_0_1">
<rect width="17.28" height="17.28" fill="white" transform="translate(9.36035 9.36035)"/>
</clipPath>
</defs>
</svg>