<svg width="36" height="36" viewBox="0 0 36 36" fill="none" xmlns="http://www.w3.org/2000/svg">
<mask id="path-1-inside-1_0_1" fill="white">
<path d="M0 0H36V36H0V0Z"/>
</mask>
<path d="M0 0H36V36H0V0Z" fill="white"/>
<path d="M35 0V36H37V0H35Z" fill="#EBEBEB" mask="url(#path-1-inside-1_0_1)"/>
<g clip-path="url(#clip0_0_1)">
<path d="M18.0004 10.9162C20.3089 10.9162 20.5822 10.9264 21.4901 10.9669C22.3339 11.004 22.7895 11.1457 23.0932 11.2639C23.4949 11.4191 23.7851 11.6081 24.0855 11.9085C24.3892 12.2122 24.5749 12.4991 24.7301 12.9007C24.8482 13.2045 24.99 13.6635 25.0271 14.5039C25.0676 15.4151 25.0777 15.6885 25.0777 17.9936C25.0777 20.3021 25.0676 20.5755 25.0271 21.4834C24.99 22.3271 24.8482 22.7827 24.7301 23.0865C24.5749 23.4881 24.3859 23.7784 24.0855 24.0787C23.7817 24.3825 23.4949 24.5681 23.0932 24.7234C22.7895 24.8415 22.3305 24.9832 21.4901 25.0204C20.5789 25.0609 20.3055 25.071 18.0004 25.071C15.6919 25.071 15.4185 25.0609 14.5106 25.0204C13.6669 24.9832 13.2112 24.8415 12.9075 24.7234C12.5059 24.5681 12.2156 24.3791 11.9152 24.0787C11.6115 23.775 11.4259 23.4881 11.2706 23.0865C11.1525 22.7827 11.0107 22.3237 10.9736 21.4834C10.9331 20.5721 10.923 20.2987 10.923 17.9936C10.923 15.6851 10.9331 15.4117 10.9736 14.5039C11.0107 13.6601 11.1525 13.2045 11.2706 12.9007C11.4259 12.4991 11.6149 12.2089 11.9152 11.9085C12.219 11.6047 12.5059 11.4191 12.9075 11.2639C13.2112 11.1457 13.6702 11.004 14.5106 10.9669C15.4185 10.9264 15.6919 10.9162 18.0004 10.9162ZM18.0004 9.36035C15.6547 9.36035 15.3611 9.37048 14.4397 9.41098C13.5217 9.45148 12.8906 9.59998 12.3439 9.8126C11.7735 10.0354 11.2909 10.329 10.8116 10.8116C10.329 11.2909 10.0354 11.7735 9.8126 12.3405C9.59998 12.8906 9.45148 13.5184 9.41098 14.4364C9.37048 15.3611 9.36035 15.6547 9.36035 18.0004C9.36035 20.346 9.37048 20.6396 9.41098 21.561C9.45148 22.479 9.59998 23.1101 9.8126 23.6569C10.0354 24.2272 10.329 24.7099 10.8116 25.1891C11.2909 25.6684 11.7735 25.9654 12.3405 26.1847C12.8906 26.3974 13.5184 26.5459 14.4364 26.5864C15.3577 26.6269 15.6514 26.637 17.997 26.637C20.3426 26.637 20.6362 26.6269 21.5576 26.5864C22.4756 26.5459 23.1067 26.3974 23.6535 26.1847C24.2205 25.9654 24.7031 25.6684 25.1824 25.1891C25.6616 24.7099 25.9586 24.2272 26.178 23.6602C26.3906 23.1101 26.5391 22.4824 26.5796 21.5644C26.6201 20.643 26.6302 20.3494 26.6302 18.0037C26.6302 15.6581 26.6201 15.3645 26.5796 14.4431C26.5391 13.5251 26.3906 12.894 26.178 12.3472C25.9654 11.7735 25.6717 11.2909 25.1891 10.8116C24.7099 10.3324 24.2272 10.0354 23.6602 9.81598C23.1101 9.60335 22.4824 9.45485 21.5644 9.41435C20.6396 9.37048 20.346 9.36035 18.0004 9.36035Z" fill="#1B2A34"/>
<path d="M18.0004 13.5625C15.5501 13.5625 13.5622 15.5504 13.5622 18.0006C13.5622 20.4509 15.5501 22.4388 18.0004 22.4388C20.4506 22.4388 22.4385 20.4509 22.4385 18.0006C22.4385 15.5504 20.4506 13.5625 18.0004 13.5625ZM18.0004 20.8795C16.4107 20.8795 15.1215 19.5903 15.1215 18.0006C15.1215 16.411 16.4107 15.1217 18.0004 15.1217C19.59 15.1217 20.8792 16.411 20.8792 18.0006C20.8792 19.5903 19.59 20.8795 18.0004 20.8795Z" fill="#1B2A34"/>
<path d="M23.6501 13.3867C23.6501 13.9605 23.1844 14.4228 22.614 14.4228C22.0402 14.4228 21.5779 13.9571 21.5779 13.3867C21.5779 12.813 22.0436 12.3506 22.614 12.3506C23.1844 12.3506 23.6501 12.8163 23.6501 13.3867Z" fill="#1B2A34"/>
</g>
<defs>
<clipPath id="clip0_0_1">
<rect width="17.28" height="17.28" fill="white" transform="translate(9.36035 9.36035)"/>
</clipPath>
</defs>
</svg>