<svg width="36" height="36" viewBox="0 0 36 36" fill="none" xmlns="http://www.w3.org/2000/svg">
<rect width="36" height="36" fill="white"/>
<g clip-path="url(#clip0_0_1)">
<path d="M14.7965 25.02C21.3156 25.02 24.8823 19.6176 24.8823 14.9342C24.8823 14.7823 24.8789 14.627 24.8722 14.4752C25.566 13.9734 26.1648 13.3519 26.6404 12.6398C25.9942 12.9273 25.3081 13.1151 24.6056 13.1967C25.3453 12.7533 25.8991 12.0568 26.1645 11.2362C25.4686 11.6486 24.7076 11.9395 23.914 12.0965C23.3794 11.5283 22.6724 11.1522 21.9025 11.0261C21.1326 10.9001 20.3426 11.0312 19.6547 11.3991C18.9668 11.7671 18.4192 12.3514 18.0967 13.0618C17.7742 13.7721 17.6947 14.5689 17.8704 15.329C16.4613 15.2583 15.0829 14.8923 13.8243 14.2547C12.5658 13.617 11.4553 12.722 10.5649 11.6277C10.1123 12.408 9.97383 13.3313 10.1776 14.21C10.3813 15.0887 10.912 15.8569 11.6618 16.3584C11.0989 16.3405 10.5483 16.189 10.0556 15.9163V15.9602C10.0551 16.779 10.3382 17.5728 10.8567 18.2065C11.3753 18.8402 12.0973 19.2748 12.9001 19.4364C12.3786 19.5791 11.8314 19.5999 11.3006 19.4972C11.5272 20.2014 11.9679 20.8173 12.5613 21.259C13.1547 21.7007 13.8712 21.946 14.6108 21.9609C13.3552 22.9472 11.8042 23.4822 10.2075 23.4797C9.92432 23.4792 9.64144 23.4619 9.36035 23.4277C10.9824 24.4683 12.8693 25.021 14.7965 25.02Z" fill="#1B2A34"/>
</g>
<defs>
<clipPath id="clip0_0_1">
<rect width="17.28" height="17.28" fill="white" transform="translate(9.36035 9.36035)"/>
</clipPath>
</defs>
</svg>