<svg width="37" height="36" viewBox="0 0 37 36" fill="none" xmlns="http://www.w3.org/2000/svg">
<path d="M28.5 14H3L16 27.5L28.5 14Z" fill="#ABC8C8"/>
<path d="M7.80955 4.5H29.1906C29.4272 4.49997 29.6606 4.55594 29.8715 4.66335C30.0824 4.77076 30.2649 4.92656 30.4041 5.118L36.1386 13.002C36.2405 13.1423 36.2907 13.3136 36.2806 13.4867C36.2704 13.6598 36.2006 13.824 36.0831 13.9515L19.0505 32.403C18.9156 32.5489 18.7283 32.6352 18.5297 32.6431C18.3312 32.651 18.1376 32.5797 17.9916 32.445C17.9811 32.436 12.2916 26.2725 0.91705 13.9515C0.799456 13.824 0.729659 13.6598 0.71954 13.4867C0.709421 13.3136 0.759605 13.1423 0.86155 13.002L6.59605 5.118C6.73522 4.92656 6.91772 4.77076 7.12863 4.66335C7.33953 4.55594 7.57287 4.49997 7.80955 4.5ZM8.57455 7.5L4.37455 13.275L18.5 28.575L32.6256 13.275L28.4256 7.5H8.57455Z" fill="#1B2A34"/>
</svg>