<svg width="37" height="36" viewBox="0 0 37 36" fill="none" xmlns="http://www.w3.org/2000/svg">
<path d="M3.5 28V19C7 21 15.1 25.2 19.5 26C23.9 26.8 31 25 34 24C30.6667 26 23.1 30 19.5 30C15.9 30 10.3333 27.3333 8 26V28H3.5Z" fill="#ABC8C8"/>
<path d="M8 13.4998C8.39782 13.4998 8.77936 13.6578 9.06066 13.9392C9.34196 14.2205 9.5 14.602 9.5 14.9998C11.8567 14.9963 14.1455 15.7892 15.995 17.2498H19.25C21.248 17.2498 23.045 18.1183 24.2795 19.4983L29 19.4998C30.4179 19.4994 31.8068 19.901 33.0058 20.6579C34.2048 21.4148 35.1646 22.4961 35.774 23.7763C32.2265 28.4578 26.483 31.4998 20 31.4998C15.815 31.4998 12.275 30.5953 9.41 29.0128C9.30507 29.3024 9.11336 29.5526 8.86102 29.7292C8.60869 29.9058 8.30801 30.0003 8 29.9998H3.5C3.10218 29.9998 2.72064 29.8418 2.43934 29.5605C2.15804 29.2792 2 28.8976 2 28.4998V14.9998C2 14.602 2.15804 14.2205 2.43934 13.9392C2.72064 13.6578 3.10218 13.4998 3.5 13.4998H8ZM9.5015 17.9998L9.5 25.5313L9.5675 25.5808C12.26 27.4708 15.767 28.4998 20 28.4998C24.506 28.4998 28.6985 26.7658 31.7525 23.8048L31.952 23.6053L31.772 23.4553C31.0637 22.9006 30.2051 22.5713 29.3075 22.5103L29 22.4998L25.832 22.4983C25.9415 22.9813 26 23.4838 26 23.9998V25.4998H12.5V22.4998L22.685 22.4983L22.634 22.3813C22.3465 21.7806 21.9044 21.2673 21.3529 20.894C20.8014 20.5207 20.1605 20.301 19.496 20.2573L19.25 20.2498H14.855C14.158 19.5369 13.3254 18.9706 12.4063 18.5842C11.4872 18.1978 10.5 17.9991 9.503 17.9998H9.5015ZM6.5 16.4998H5V26.9998H6.5V16.4998ZM20.969 5.36231L21.5 5.89481L22.031 5.36381C22.3787 5.01314 22.7923 4.7346 23.2479 4.54418C23.7036 4.35377 24.1923 4.25523 24.6862 4.25421C25.18 4.2532 25.6692 4.34974 26.1256 4.53829C26.582 4.72684 26.9967 5.00369 27.3459 5.35293C27.695 5.70218 27.9718 6.11695 28.1602 6.57343C28.3486 7.02991 28.445 7.51911 28.4438 8.01294C28.4427 8.50678 28.344 8.99553 28.1535 9.45112C27.9629 9.90672 27.6843 10.3202 27.3335 10.6678L21.5 16.4998L15.665 10.6648C15.3143 10.3171 15.0358 9.90354 14.8454 9.44789C14.655 8.99224 14.5564 8.50347 14.5554 8.00963C14.5544 7.51579 14.6509 7.02662 14.8395 6.57019C15.028 6.11377 15.3049 5.69907 15.6541 5.34993C16.0034 5.00078 16.4181 4.72405 16.8746 4.53563C17.3311 4.34721 17.8203 4.25081 18.3141 4.25196C18.808 4.25311 19.2967 4.35179 19.7523 4.54234C20.2079 4.73288 20.6214 5.01154 20.969 5.36231ZM17.789 7.48481C17.6647 7.60844 17.5876 7.77172 17.5712 7.94628C17.5547 8.12084 17.5999 8.29564 17.699 8.44031L17.786 8.54381L21.5 12.2548L25.214 8.54381C25.3382 8.41971 25.415 8.25596 25.4309 8.08107C25.4468 7.90619 25.4008 7.73128 25.301 7.58681L25.214 7.48181C25.0897 7.3578 24.9259 7.28132 24.751 7.26569C24.5761 7.25007 24.4013 7.29629 24.257 7.39631L24.152 7.48331L21.4985 10.1353L18.848 7.48031L18.746 7.39631C18.6015 7.29648 18.4266 7.25052 18.2517 7.26641C18.0769 7.28231 17.9131 7.35907 17.789 7.48331V7.48481Z" fill="#1B2A34"/>
</svg>