<svg width="36" height="36" viewBox="0 0 36 36" fill="none" xmlns="http://www.w3.org/2000/svg">
<path d="M28.5 31.5H18C18 31.5 18 25.5 20 22.5C22 19.5 28.5 17.5 28.5 17.5V31.5Z" fill="#ABC8C8"/>
<path d="M5.99991 30V21C5.99991 17.8174 7.2642 14.7652 9.51463 12.5147C11.7651 10.2643 14.8173 9 17.9999 9C21.1825 9 24.2348 10.2643 26.4852 12.5147C28.7356 14.7652 29.9999 17.8174 29.9999 21V30H31.4999V33H4.49991V30H5.99991ZM8.99991 30H26.9999V21C26.9999 18.6131 26.0517 16.3239 24.3639 14.636C22.676 12.9482 20.3869 12 17.9999 12C15.613 12 13.3238 12.9482 11.636 14.636C9.94813 16.3239 8.99991 18.6131 8.99991 21V30ZM16.4999 3H19.4999V7.5H16.4999V3ZM29.6669 7.212L31.7879 9.333L28.6079 12.5145L26.4854 10.3935L29.6669 7.212ZM4.21191 9.333L6.33291 7.212L9.51441 10.392L7.39491 12.516L4.21191 9.333ZM10.4999 21C10.4999 19.0109 11.2901 17.1032 12.6966 15.6967C14.1031 14.2902 16.0108 13.5 17.9999 13.5V16.5C16.8064 16.5 15.6618 16.9741 14.8179 17.818C13.974 18.6619 13.4999 19.8065 13.4999 21H10.4999Z" fill="#0D0D0D"/>
</svg>