<svg width="36" height="36" viewBox="0 0 36 36" fill="none" xmlns="http://www.w3.org/2000/svg">
<path d="M18 17.5L4.5 19.5C6 22.5 7.5 29 13 31C16.5464 32.2896 22 31.1667 24.5 30L18 17.5Z" fill="#ABC8C8"/>
<path d="M18 30C21.1826 30 24.2348 28.7357 26.4853 26.4853C28.7357 24.2348 30 21.1826 30 18C30 14.8174 28.7357 11.7652 26.4853 9.51472C24.2348 7.26428 21.1826 6 18 6C14.8174 6 11.7652 7.26428 9.51472 9.51472C7.26428 11.7652 6 14.8174 6 18C6 21.1826 7.26428 24.2348 9.51472 26.4853C11.7652 28.7357 14.8174 30 18 30ZM18 33C9.7155 33 3 26.2845 3 18C3 9.7155 9.7155 3 18 3C26.2845 3 33 9.7155 33 18C33 26.2845 26.2845 33 18 33ZM18 24C19.5913 24 21.1174 23.3679 22.2426 22.2426C23.3679 21.1174 24 19.5913 24 18C24 16.4087 23.3679 14.8826 22.2426 13.7574C21.1174 12.6321 19.5913 12 18 12C16.4087 12 14.8826 12.6321 13.7574 13.7574C12.6321 14.8826 12 16.4087 12 18C12 19.5913 12.6321 21.1174 13.7574 22.2426C14.8826 23.3679 16.4087 24 18 24ZM18 27C15.6131 27 13.3239 26.0518 11.636 24.364C9.94821 22.6761 9 20.3869 9 18C9 15.6131 9.94821 13.3239 11.636 11.636C13.3239 9.94821 15.6131 9 18 9C20.3869 9 22.6761 9.94821 24.364 11.636C26.0518 13.3239 27 15.6131 27 18C27 20.3869 26.0518 22.6761 24.364 24.364C22.6761 26.0518 20.3869 27 18 27ZM18 21C17.2044 21 16.4413 20.6839 15.8787 20.1213C15.3161 19.5587 15 18.7956 15 18C15 17.2044 15.3161 16.4413 15.8787 15.8787C16.4413 15.3161 17.2044 15 18 15C18.7956 15 19.5587 15.3161 20.1213 15.8787C20.6839 16.4413 21 17.2044 21 18C21 18.7956 20.6839 19.5587 20.1213 20.1213C19.5587 20.6839 18.7956 21 18 21Z" fill="#1B2A34"/>
</svg>